{"asset": {"version": "2.0", "generator": "Xen2D generate_primitive_meshes.py"}, "buffers": [{"byteLength": 204, "uri": "data:application/octet-stream;base64,"}], "bufferViews": [{"buffer": 0, "byteOffset": 0, "byteLength": 48, "target": 34962}, {"buffer": 0, "byteOffset": 48, "byteLength": 48, "target": 34962}, {"buffer": 0, "byteOffset": 96, "byteLength": 64, "target": 34962}, {"buffer": 0, "byteOffset": 160, "byteLength": 32, "target": 34962}, {"buffer": 0, "byteOffset": 192, "byteLength": 12, "target": 34963}], "accessors": [{"bufferView": 0, "componentType": 5126, "count": 4, "type": "VEC3", "min": [-0.5, 0.0, -0.5], "max": [0.5, 0.0, 0.5]}, {"bufferView": 1, "componentType": 5126, "count": 4, "type": "VEC3"}, {"bufferView": 2, "componentType": 5126, "count": 4, "type": "VEC4"}, {"bufferView": 3, "componentType": 5126, "count": 4, "type": "VEC2"}, {"bufferView": 4, "componentType": 5123, "count": 6, "type": "SCALAR"}], "meshes": [{"primitives": [{"attributes": {"POSITION": 0, "NORMAL": 1, "TANGENT": 2, "TEXCOORD_0": 3}, "indices": 4, "mode": 4}]}], "nodes": [{"mesh": 0}], "scenes": [{"nodes": [0]}], "scene": 0}