{"asset": {"version": "2.0", "generator": "Xen2D generate_primitive_meshes.py"}, "buffers": [{"byteLength": 33072, "uri": "data:application/octet-stream;base64,"}], "bufferViews": [{"buffer": 0, "byteOffset": 0, "byteLength": 6732, "target": 34962}, {"buffer": 0, "byteOffset": 6732, "byteLength": 6732, "target": 34962}, {"buffer": 0, "byteOffset": 13464, "byteLength": 8976, "target": 34962}, {"buffer": 0, "byteOffset": 22440, "byteLength": 4488, "target": 34962}, {"buffer": 0, "byteOffset": 26928, "byteLength": 6144, "target": 34963}], "accessors": [{"bufferView": 0, "componentType": 5126, "count": 561, "type": "VEC3", "min": [-0.5, -0.5, -0.5], "max": [0.5, 0.5, 0.5]}, {"bufferView": 1, "componentType": 5126, "count": 561, "type": "VEC3"}, {"bufferView": 2, "componentType": 5126, "count": 561, "type": "VEC4"}, {"bufferView": 3, "componentType": 5126, "count": 561, "type": "VEC2"}, {"bufferView": 4, "componentType": 5123, "count": 3072, "type": "SCALAR"}], "meshes": [{"primitives": [{"attributes": {"POSITION": 0, "NORMAL": 1, "TANGENT": 2, "TEXCOORD_0": 3}, "indices": 4, "mode": 4}]}], "nodes": [{"mesh": 0}], "scenes": [{"nodes": [0]}], "scene": 0}